<?xml version="1.0" encoding="UTF-8" standalone="no"?>
<svg
   width="350"
   height="52"
   viewBox="0 0 350 52"
   fill="none"
   version="1.1"
   id="svg11"
   sodipodi:docname="logo_cabecario.svg"
   inkscape:version="1.4.3 (0d15f75, 2025-12-25)"
   inkscape:export-filename="logo_cabecario.svg"
   inkscape:export-xdpi="96"
   inkscape:export-ydpi="96"
   xmlns:inkscape="http://www.inkscape.org/namespaces/inkscape"
   xmlns:sodipodi="http://sodipodi.sourceforge.net/DTD/sodipodi-0.dtd"
   xmlns="http://www.w3.org/2000/svg"
   xmlns:svg="http://www.w3.org/2000/svg">
  <defs
     id="defs11" />
  <sodipodi:namedview
     id="namedview11"
     pagecolor="#ffffff"
     bordercolor="#000000"
     borderopacity="0.25"
     inkscape:showpageshadow="2"
     inkscape:pageopacity="0.0"
     inkscape:pagecheckerboard="0"
     inkscape:deskcolor="#d1d1d1"
     inkscape:zoom="2.475"
     inkscape:cx="114.34343"
     inkscape:cy="15.151515"
     inkscape:window-width="1366"
     inkscape:window-height="697"
     inkscape:window-x="-8"
     inkscape:window-y="-8"
     inkscape:window-maximized="1"
     inkscape:current-layer="svg11">
    <inkscape:page
       x="0"
       y="0"
       width="350"
       height="52"
       id="page2"
       margin="0"
       bleed="0" />
  </sodipodi:namedview>
  <path
     fill-rule="evenodd"
     clip-rule="evenodd"
     d="m 9.9140646,18.815616 -0.002,-18.55113783 13.4443794,0.066848 13.444377,0.066842 1.388066,0.4989998 c 4.089481,1.47000703 6.798527,3.79316783 8.612055,7.38667813 0.348323,0.690097 0.593796,1.295182 0.544779,1.344236 -0.04945,0.04906 -0.754496,-0.04994 -1.567654,-0.220041 C 42.310085,8.6827901 36.691516,8.4378801 32.51566,8.8297531 30.905825,8.9810541 30.774048,8.9613281 30.341356,8.5053751 29.192734,7.2948426 24.36161,6.8217744 21.601546,7.6496333 17.0388,9.0180961 13.187563,12.436522 10.660113,17.361412 Z M 15.67485,12.916505 c 2.260287,-2.244131 4.457488,-3.5853549 6.80455,-4.1535989 1.683364,-0.407502 4.036048,-0.411358 5.390771,-0.009 0.610666,0.181272 1.106435,0.350091 1.101612,0.37496 -0.0055,0.02487 -0.132578,0.575475 -0.283239,1.2236289 l -0.274394,1.178352 -2.020035,0.110202 c -2.534279,0.138204 -3.672049,0.64956 -5.451834,2.451035 -2.503345,2.533315 -3.851238,6.449517 -3.365914,9.779635 0.331049,2.270527 1.001177,3.802103 1.73679,3.967828 3.952881,0.891538 5.70936,1.82767 10.324739,5.503664 1.952135,1.554875 4.287144,3.24591 5.188685,3.757828 3.592505,2.040119 9.372173,3.888684 13.203728,4.222541 0.953366,0.08317 1.733174,0.251096 1.733174,0.372429 0,0.121732 -0.253504,0.65366 -0.563262,1.182373 l -0.562862,0.960995 -2.490086,-0.139808 c -4.064968,-0.227798 -8.497551,-1.333433 -11.3914,-2.841624 -1.37682,-0.717497 -3.946858,-2.594223 -7.564674,-5.523471 -4.547879,-3.682902 -7.831032,-4.825295 -13.095648,-4.556963 -3.744372,0.190834 -7.9945519,1.377582 -11.9972572,3.350289 -0.9393062,0.462738 -1.73799732,0.811144 -1.77536222,0.77386 -0.036969,-0.0371 0.4732716,-0.561736 1.13456202,-1.165937 1.5170357,-1.386662 4.2172368,-3.055317 6.3654279,-3.933997 l 1.6604591,-0.67901 v -1.751054 c 0,-5.340709 2.2116694,-10.504686 6.1914694,-14.455157 z m 14.075541,-2.188649 c 0.151861,-0.491307 0.66772,-0.604 3.677272,-0.8036729 7.473477,-0.495567 14.403775,0.6324849 18.278318,2.9752079 3.863289,2.336012 6.219989,6.543929 5.930321,10.589897 -0.06471,0.905439 -0.229799,1.594532 -0.429877,1.794406 -0.289669,0.289746 -0.400149,0.182115 -1.034119,-1.007446 -1.83201,-3.437669 -4.792151,-5.32078 -9.984452,-6.352893 -3.445866,-0.684714 -11.85342,-0.436629 -16.618251,0.490303 -0.569693,0.110764 -0.588982,0.08421 -0.586968,-0.813155 0.002,-1.041715 0.588975,-6.294158 0.767756,-6.872647 z m -4.977763,6.684947 c -1.496945,-0.49388 -1.882634,-2.299614 -0.703477,-3.291832 0.963012,-0.810263 2.122878,-0.767797 2.856891,0.104617 1.372798,1.631332 -0.12977,3.855255 -2.153414,3.187215 z m 1.286023,-2.176957 c -0.192847,-0.192844 -0.292076,-0.502961 -0.220568,-0.688652 0.07111,-0.186013 0.328234,-0.338078 0.5713,-0.338078 0.587768,0 0.788645,0.588493 0.350732,1.02673 -0.324619,0.324538 -0.376445,0.324538 -0.701464,0 z m 3.243781,4.251827 c 0.331049,-0.126794 5.967286,-0.923356 7.498382,-1.059431 5.237696,-0.465796 11.187308,0.32241 14.355157,1.901473 1.46561,0.730634 3.459927,2.215848 2.571245,1.915012 -3.354668,-1.135805 -9.176117,-1.183735 -16.206457,-0.133463 -5.064945,0.756467 -5.787705,0.759279 -6.988952,0.02652 -1.192011,-0.727139 -1.954951,-2.371609 -1.229375,-2.650107 z m 2.945675,4.561102 c 0.382873,-0.009 1.805096,-0.145235 3.160219,-0.302805 4.171434,-0.485241 6.701299,-0.126553 9.520826,1.350023 1.944904,1.018252 4.147729,3.211882 5.030794,5.009581 1.279593,2.605307 1.607026,6.068048 0.855339,9.053381 l -0.260741,1.034119 -1.841655,-0.121611 c -3.12084,-0.20642 -7.02551,-1.196629 -10.491467,-2.661113 L 36.855854,36.833828 36.984417,35.6053 c 0.272386,-2.606717 -0.727583,-5.25361 -2.983447,-7.898131 -1.245442,-1.459902 -2.449104,-3.162828 -2.449104,-3.464748 0,-0.09767 0.312966,-0.184888 0.696241,-0.193646 z M 5.0909781,35.113309 c 1.8006744,-0.886192 4.4880225,-1.771665 6.5976489,-2.173822 1.871783,-0.356721 5.095073,-0.246843 6.900569,0.235265 2.839209,0.758078 4.425746,1.750613 11.141105,6.971841 4.018773,3.124299 8.939888,4.822931 15.258306,5.267268 l 2.070653,0.145438 -1.183973,1.090367 c -2.305681,2.124086 -5.483976,3.560369 -8.795657,3.975378 -1.038942,0.13057 -7.002613,0.221776 -14.467652,0.221776 H 9.9120566 l -0.0013,-4.981384 c -4.01e-4,-2.739974 -0.06429,-6.224494 -0.141816,-7.743537 L 9.6282696,35.360105 7.317365,35.500443 c -1.2711552,0.07718 -2.6294932,0.1877 -3.0187971,0.245832 -0.5475946,0.08163 -0.3692139,-0.06105 0.792261,-0.632966 z"
     fill="#222223"
     id="path11"
     style="stroke-width:0.401756;fill:#ffffff;fill-opacity:0.84615386" />
  <path
     d="M 85.917601,12.683606 H 62.917216 c -0.559039,0 -1.038213,0.47906 -1.038213,1.078765 0,0.598825 0.479174,1.038257 1.038213,1.038257 H 73.379173 V 42.95157 c 0,0.598825 0.479149,1.077885 1.038257,1.077885 0.598914,0 1.078062,-0.47906 1.078062,-1.077885 V 14.800628 h 10.422109 c 0.559021,0 1.038169,-0.439432 1.038169,-1.038257 0,-0.599705 -0.479148,-1.078765 -1.038169,-1.078765 z"
     fill="#222223"
     id="path1"
     style="stroke-width:0.880625;fill:#ffffff;fill-opacity:0.84615386" />
  <path
     d="m 120.9666,42.871433 c 0,-0.598825 -0.43925,-1.077885 -1.03825,-1.077885 h -0.15975 c -0.0799,0.04051 -1.75693,0.199902 -3.27434,-2.3953 -2.07642,-3.554203 -4.43236,-5.670345 -6.38893,-6.988641 1.91668,-0.318786 3.51387,-0.877983 4.79174,-1.637082 1.27779,-0.798727 2.27607,-1.836984 2.99483,-3.074262 0.71877,-1.357924 1.11804,-2.995006 1.11804,-4.83199 0,-3.234536 -0.9184,-5.79011 -2.75521,-7.586585 -2.71532,-2.675339 -6.34913,-2.715847 -6.58866,-2.715847 H 97.087749 c -0.638894,0 -1.197914,0.519568 -1.197914,1.158022 V 42.95157 c 0,0.598825 0.479148,1.077885 1.078149,1.077885 0.598913,0 1.078061,-0.47906 1.078061,-1.077885 V 14.720491 h 11.620025 c 0.0399,0 2.95494,0 5.07126,2.076514 1.39755,1.397552 2.11631,3.433557 2.11631,6.069268 0,2.795104 -0.99827,4.791481 -3.0747,6.069268 -1.67706,1.038257 -4.11287,1.597454 -7.18757,1.677591 -0.55902,0 -1.03826,0.398923 -1.11804,0.95812 -0.0799,0.559197 0.23953,1.118394 0.79855,1.277787 0.63889,0.23953 1.95666,0.798727 3.51396,1.956749 1.87678,1.43718 3.51395,3.314673 4.87161,5.670345 1.15803,1.996377 2.51569,2.834732 3.43409,3.154399 1.07815,0.398923 1.87679,0.319667 1.99655,0.279158 0.51913,-0.07926 0.87851,-0.518688 0.87851,-1.038257 z"
     fill="#222223"
     id="path2"
     style="stroke-width:0.880625;fill:#ffffff;fill-opacity:0.84615386" />
  <path
     d="m 130.97925,44.029455 c -0.59971,0 -1.07859,-0.47906 -1.07859,-1.077885 V 13.721863 c 0,-0.559197 0.47888,-1.038257 1.07859,-1.038257 0.59882,0 1.07788,0.47906 1.07788,1.038257 V 42.95157 c 0,0.598825 -0.47906,1.077885 -1.07788,1.077885 z"
     fill="#222223"
     id="path3"
     style="stroke-width:0.880625;fill:#ffffff;fill-opacity:0.84615386" />
  <path
     d="m 142.02946,44.029455 c -0.59883,0 -1.03826,-0.47906 -1.03826,-1.077885 V 13.801999 c 0,-0.598825 0.43943,-1.038256 1.03826,-1.038256 h 12.61847 c 0.23953,0 3.87299,0 6.54833,2.675338 1.83698,1.797356 2.75548,4.312421 2.75548,7.546957 0,1.917121 -0.39893,3.554203 -1.19765,4.951755 -0.7591,1.237278 -1.79736,2.275535 -3.1544,3.074262 -2.11703,1.198531 -5.03189,1.797356 -8.58522,1.797356 -0.5997,0 -1.07876,-0.47906 -1.07876,-1.078766 0,-0.558316 0.47906,-1.037376 1.07876,-1.037376 3.19403,0 5.70998,-0.519569 7.50645,-1.557826 2.23679,-1.238159 3.27505,-3.274164 3.27505,-6.149405 0,-2.635711 -0.67897,-4.671716 -2.11703,-6.069268 -2.07651,-2.036885 -4.99138,-2.036885 -5.03101,-2.036885 H 143.10734 V 42.95157 c 0,0.598825 -0.47906,1.077885 -1.07788,1.077885 z"
     fill="#222223"
     id="path4"
     style="stroke-width:0.880625;fill:#ffffff;fill-opacity:0.84615386" />
  <path
     d="m 195.36727,29.335345 c -0.87886,-0.918492 -1.87661,-1.477689 -2.87524,-1.836984 0.51957,-0.398923 1.03826,-0.838355 1.51732,-1.397552 1.39755,-1.677591 1.91712,-3.913498 1.59745,-6.628465 -0.15939,-1.477689 -0.63845,-2.755476 -1.39755,-3.754104 -0.63846,-0.877984 -1.47769,-1.596574 -2.47544,-2.075634 -1.91712,-0.918492 -4.03326,-0.918492 -4.83199,-0.918492 h -12.97777 c -0.5592,0 -1.03826,0.47906 -1.03826,1.077885 V 42.95157 c 0,0.280039 0.11977,0.559197 0.31967,0.759099 0.1999,0.199021 0.43943,0.318786 0.71859,0.318786 l 14.93452,-0.03963 c 2.07651,0 3.83336,-0.439432 5.23091,-1.317415 0.91849,-0.559197 1.71722,-1.357924 2.27642,-2.316044 0.59882,-1.077885 0.99775,-2.356553 1.11751,-3.833361 0.28004,-3.075143 -0.43943,-5.510952 -2.11614,-7.187662 z m 0,6.98776 c -0.1999,2.156651 -0.99863,3.673968 -2.39618,4.551951 -1.07789,0.678962 -2.43581,0.998629 -4.11252,0.998629 l -13.85576,0.03963 v -27.03343 h 11.89901 c 1.15802,0 2.63571,0.08014 3.9135,0.678961 1.55694,0.759099 2.43581,2.116143 2.67534,4.153028 0.27916,2.116142 -0.11977,3.793733 -1.1184,5.031011 -1.43718,1.797356 -3.87299,2.076514 -4.07289,2.076514 l -7.06789,0.199902 c -0.59883,0 -1.03826,0.518688 -1.03826,1.077885 0.0405,0.598825 0.47906,1.038257 1.07876,1.038257 l 7.10753,-0.159393 h 0.0396 c 0.0405,-0.04051 3.39393,-0.23953 5.43081,1.836984 1.23816,1.237278 1.71722,3.11389 1.51732,5.510071 z"
     fill="#222223"
     id="path5"
     style="stroke-width:0.880625;fill:#ffffff;fill-opacity:0.84615386" />
  <path
     d="m 231.55311,42.871433 c 0,-0.598825 -0.43943,-1.077885 -1.03825,-1.077885 h -0.16028 c -0.0793,0.04051 -1.75684,0.199902 -3.27416,-2.3953 -2.07652,-3.554203 -4.43219,-5.670345 -6.38894,-6.988641 1.91712,-0.318786 3.5137,-0.877983 4.79148,-1.637082 1.27779,-0.798727 2.27642,-1.836984 2.99501,-3.074262 0.71859,-1.357924 1.11839,-2.995006 1.11839,-4.83199 0,-3.234536 -0.91849,-5.79011 -2.75547,-7.586585 -2.71497,-2.675339 -6.34931,-2.715847 -6.58884,-2.715847 h -12.57797 c -0.63933,0 -1.19765,0.519568 -1.19765,1.158022 V 42.95157 c 0,0.598825 0.47906,1.077885 1.07789,1.077885 0.59882,0 1.07788,-0.47906 1.07788,-1.077885 V 14.720491 h 11.61985 c 0.0405,0 2.95538,0 5.07152,2.076514 1.39755,1.397552 2.11614,3.433557 2.11614,6.069268 0,2.795104 -0.99774,4.791481 -3.07426,6.069268 -1.67759,1.038257 -4.1134,1.597454 -7.18766,1.677591 -0.5592,0 -1.03826,0.398923 -1.11839,0.95812 -0.0793,0.559197 0.23953,1.118394 0.79872,1.277787 0.63934,0.23953 1.95675,0.798727 3.5137,1.956749 1.87749,1.43718 3.51457,3.314673 4.87161,5.670345 1.15803,1.996377 2.51595,2.834732 3.43444,3.154399 1.07789,0.398923 1.87661,0.319667 1.99638,0.279158 0.51957,-0.07926 0.87886,-0.518688 0.87886,-1.038257 z"
     fill="#222223"
     id="path6"
     style="stroke-width:0.880625;fill:#ffffff;fill-opacity:0.84615386" />
  <path
     d="m 241.55792,44.029455 c -0.23953,0 -0.43943,-0.07926 -0.63933,-0.199021 -0.39893,-0.319667 -0.55832,-0.878864 -0.31879,-1.318296 l 14.21505,-29.308964 c 0.1999,-0.359295 0.5592,-0.598825 0.95812,-0.598825 0.3998,0 0.79873,0.23953 0.959,0.598825 l 14.29519,29.229708 c 0.27916,0.518688 0.0396,1.158022 -0.47906,1.43718 -0.51957,0.23953 -1.15802,0.03963 -1.43806,-0.47906 l -3.55332,-7.307427 c -2.47632,-0.759099 -5.19129,-0.918492 -8.02602,-0.398923 -2.47632,0.438551 -5.03189,1.357043 -7.6271,2.754595 -4.51232,2.356553 -7.58658,5.271422 -7.62709,5.31105 -0.1999,0.199902 -0.47906,0.279158 -0.71859,0.279158 z m 14.21505,-27.911412 -11.22004,23.080303 c 1.19765,-0.838355 2.67534,-1.756847 4.31242,-2.635711 2.7951,-1.477689 5.59021,-2.475437 8.22592,-2.954497 2.51506,-0.479941 4.95175,-0.47906 7.22729,-0.04051 z"
     fill="#222223"
     id="path7"
     style="stroke-width:0.880625;fill:#ffffff;fill-opacity:0.84615386" />
  <path
     d="m 291.09921,27.099438 c -1.91624,-0.399804 -3.51369,-0.998629 -4.79148,-1.877493 -0.95812,-0.638453 -1.71722,-1.43718 -2.27554,-2.355672 -0.87886,-1.517317 -0.87886,-2.875241 -0.87886,-2.954497 v -0.08014 c 0,-1.397552 0.67896,-2.795104 1.83698,-3.833361 0.9185,-0.838355 2.59521,-1.836983 5.31105,-1.836983 1.87662,0 4.55195,0.23953 6.62847,1.43718 1.19765,0.678962 1.63708,1.357923 1.63708,1.357923 h -0.0396 c 0.19902,0.319667 0.55832,0.559197 0.95812,0.559197 0.59883,0 1.07789,-0.519568 1.07789,-1.077885 0,-0.199902 -0.0801,-0.359295 -0.1594,-0.519568 v -0.03963 -0.03963 c -0.16027,-0.24041 -0.79872,-1.118394 -2.19627,-1.997257 -2.03689,-1.19765 -4.6726,-1.796476 -7.90626,-1.796476 -1.35792,0 -2.63571,0.199902 -3.79373,0.638454 -1.11839,0.399803 -2.11614,0.959 -2.95538,1.717219 -1.59657,1.43806 -2.51506,3.393929 -2.51506,5.391186 -0.0405,0.318786 -0.0405,2.075633 1.07788,4.032382 0.67897,1.198531 1.67759,2.276416 2.91487,3.114771 1.51732,1.038257 3.39393,1.797356 5.67035,2.276416 3.43443,0.678962 5.9495,1.796475 7.42719,3.234536 1.23816,1.19765 1.79735,2.675339 1.79735,4.551951 0,0.758218 -0.16027,2.235907 -1.47768,3.474066 -1.43807,1.317415 -3.75411,1.956749 -6.90851,1.956749 -2.15577,0 -5.23091,-0.280039 -7.54695,-1.597454 -1.31742,-0.759099 -1.79648,-1.517317 -1.83699,-1.597454 -0.19902,-0.359295 -0.55831,-0.598825 -0.95812,-0.598825 -0.59882,0 -1.11751,0.47906 -1.11751,1.077885 0,0.23953 0.0793,0.439432 0.19902,0.598825 0.16027,0.280039 0.83835,1.277787 2.43581,2.236788 2.23591,1.357043 5.19128,2.036005 8.82474,2.036005 3.7136,0 6.5087,-0.838355 8.34569,-2.555574 1.91712,-1.756847 2.19627,-3.912617 2.19627,-5.031011 0,-5.191285 -3.59383,-8.425821 -10.98139,-9.902629 z"
     fill="#222223"
     id="path8"
     style="stroke-width:0.880625;fill:#ffffff;fill-opacity:0.84615386" />
  <path
     d="m 312.09255,44.029455 c -0.59883,0 -1.07789,-0.47906 -1.07789,-1.077885 V 13.721863 c 0,-0.559197 0.47906,-1.038257 1.07789,-1.038257 0.5997,0 1.07876,0.47906 1.07876,1.038257 V 42.95157 c 0,0.598825 -0.47906,1.077885 -1.07876,1.077885 z"
     fill="#222223"
     id="path9"
     style="stroke-width:0.880625;fill:#ffffff;fill-opacity:0.84615386" />
  <path
     d="m 341.71161,44.029455 h -18.52835 c -0.59882,0 -1.07788,-0.47906 -1.07788,-1.077885 V 13.801999 c 0,-0.598825 0.47906,-1.038256 1.07788,-1.038256 0.59883,0 1.07789,0.439431 1.07789,1.038256 v 28.111314 h 17.45046 c 0.59883,0 1.07789,0.47906 1.07789,1.038257 0,0.598825 -0.47906,1.077885 -1.07789,1.077885 z"
     fill="#222223"
     id="path10"
     style="stroke-width:0.880625;fill:#ffffff;fill-opacity:0.84615386" />
  <path
     style="fill:#ffffff;fill-opacity:0.84615386;stroke:#ffffff;stroke-width:0;stroke-linecap:round"
     d="M 10.10101,9.1535499 V 0.60606061 h 13.445742 13.445743 l 2.816884,1.35152859 c 2.844376,1.3647192 5.219547,3.535486 6.43039,5.8769979 0.345905,0.6689062 0.628918,1.2926573 0.628918,1.3861139 0,0.093457 -0.863636,0.00385 -1.919192,-0.1991236 C 43.893939,8.8186032 40.30303,8.6340513 36.969697,8.6114622 32.136691,8.5787107 30.708212,8.4389681 29.917362,7.9215592 29.191581,7.4467224 27.945555,7.2727273 25.270897,7.2727273 c -3.113191,0 -3.994501,0.1592763 -5.947724,1.0749119 C 16.44619,9.6963176 13.654365,12.23176 11.651097,15.315166 L 10.10101,17.70104 Z"
     id="path12" />
  <path
     style="fill:#ffffff;fill-opacity:0.84615386;stroke:#ffffff;stroke-width:0;stroke-linecap:round"
     d="M 10.10101,9.1535499 V 0.60606061 h 13.445742 13.445743 l 2.816884,1.35152859 c 2.844376,1.3647192 5.219547,3.535486 6.43039,5.8769979 0.345905,0.6689062 0.628918,1.2926573 0.628918,1.3861139 0,0.093457 -0.863636,0.00385 -1.919192,-0.1991236 C 43.893939,8.8186032 40.30303,8.6340513 36.969697,8.6114622 32.136691,8.5787107 30.708212,8.4389681 29.917362,7.9215592 29.191581,7.4467224 27.945555,7.2727273 25.270897,7.2727273 c -3.113191,0 -3.994501,0.1592763 -5.947724,1.0749119 C 16.44619,9.6963176 13.654365,12.23176 11.651097,15.315166 L 10.10101,17.70104 Z"
     id="path13" />
</svg>
